# This file uses centimeters as units for non-parametric coordinates.

g default
v 0.881771 7.580850 -1.485174
v 6.163090 7.580841 -1.485174
v 0.881771 7.580850 -8.804729
v 6.163090 7.580841 -8.804729
v 0.000957 6.572644 -1.169622
v 0.000957 6.572644 -9.120281
v 7.043926 6.572634 -9.120281
v 7.043926 6.572634 -1.169622
v 6.335392 6.572635 -8.894592
v 0.696705 6.572644 -8.894592
v 6.335392 6.572635 -1.542148
v 0.696697 6.572644 -1.542148
v 6.336117 -0.008353 -8.894592
v 0.711361 -0.008345 -8.894592
v 6.336117 -0.008353 -1.542148
v 0.711361 -0.008345 -1.542148
v 0.703831 3.560250 -1.542148
v 6.335728 3.560727 -1.542148
v 6.335751 3.560713 -8.894592
v 0.703808 3.560721 -8.894592
v 6.336117 -0.008353 -0.316055
v 0.711361 -0.008345 -0.316055
v 6.335766 2.880259 -0.316055
v 6.335781 3.315866 -1.542148
v 6.335766 3.315852 -8.894592
v 0.704418 3.315860 -8.894592
v 0.704479 3.315390 -1.542148
v 0.704411 2.880267 -0.316055
v 0.704571 2.768637 -0.003105
v 6.335796 2.769116 -0.003105
v 6.335751 3.013977 -0.003105
v 0.703884 3.013498 -0.003105
v 6.246662 4.418628 -2.145179
v 8.709126 4.418622 -2.145179
v 6.246662 4.418628 -8.689629
v 8.709126 4.418622 -8.689629
v 6.246670 3.644530 -1.964231
v 6.246670 3.644530 -8.870577
v 9.420017 3.644522 -8.870577
v 9.420017 3.644522 -1.964231
v 8.915287 3.644523 -8.457308
v 6.246662 3.644530 -8.457308
v 8.915287 3.644523 -2.264884
v 6.246662 3.644530 -2.264884
v 6.246662 0.003590 -2.264884
v 8.915257 0.003583 -2.264884
v 8.915257 0.003583 -8.457308
v 6.246662 0.003590 -8.457308
v 8.758747 3.430375 -2.612960
v 9.517078 3.430370 -2.612960
v 8.758747 3.430375 -7.963317
v 9.517078 3.430370 -7.963317
v 8.758755 2.540838 -2.376611
v 8.758755 2.540838 -8.199665
v 10.227970 2.540834 -8.199665
v 10.227970 2.540834 -2.376611
v 9.723240 2.540834 -7.837669
v 8.758747 2.540838 -7.837669
v 9.723240 2.540834 -2.639965
v 8.758747 2.540838 -2.639965
v 8.758747 0.003590 -2.639965
v 9.723209 0.003583 -2.639965
v 9.723209 0.003583 -7.837669
v 8.758747 0.003590 -7.837669
v 6.116161 0.283507 -1.841323
v 8.758930 0.283507 -1.841897
v 6.116131 0.565973 -1.842292
v 8.758823 0.565973 -1.842292
v 6.116131 0.565973 -2.331050
v 8.758823 0.565973 -2.331050
v 8.759045 0.283507 -1.552536
v 6.116192 0.283507 -1.552536
v 8.759037 0.000000 -2.330877
v 8.759037 0.000000 -1.552536
v 6.116192 0.000000 -1.552536
v 5.902279 7.580841 -8.542696
v 1.142582 7.580850 -8.542696
v 1.142582 7.580850 -1.747207
v 5.902279 7.580841 -1.747207
v 5.902279 7.372651 -8.542696
v 1.142582 7.372660 -8.542696
v 1.142582 7.372660 -1.747207
v 5.902279 7.372651 -1.747207
v 3.188969 6.849405 -5.934476
v 5.002407 6.849405 -5.934476
v 3.188969 7.747453 -5.934476
v 5.002407 7.747453 -5.934476
v 3.188969 7.747453 -7.563829
v 5.002407 7.747453 -7.563829
v 3.188969 6.849405 -7.563829
v 5.002407 6.849405 -7.563829
vt 0.398119 0.237579
vt 0.016274 0.237579
vt 0.008057 0.244390
vt 0.014033 0.247273
vt 0.013497 0.238532
vt 0.438902 0.238531
vt 0.438930 0.043811
vt 0.014079 0.231443
vt 0.016274 0.402915
vt 0.008057 0.246203
vt 0.438931 0.231443
vt 0.398119 0.402915
vt 0.443880 0.009329
vt 0.014603 0.016534
vt 0.443880 0.228202
vt 0.443880 0.246203
vt 0.438957 0.016534
vt 0.538077 0.202872
vt 0.538077 0.009329
vt 0.008057 0.009329
vt 0.008057 0.228202
vt 0.443880 0.244390
vt 0.008057 0.009329
vt 0.443880 0.009329
vt 0.443880 0.228201
vt 0.998701 0.246314
vt 0.998701 0.426607
vt 0.563157 0.426607
vt 0.563157 0.246314
vt 0.560047 0.246314
vt 0.998701 0.246314
vt 0.998701 0.426606
vt 0.560047 0.426606
vt 0.008057 0.228201
vt 0.690548 0.991989
vt 0.586545 0.991989
vt 0.586545 0.553476
vt 0.690549 0.553476
vt 0.690197 0.991989
vt 0.586194 0.991989
vt 0.586194 0.553476
vt 0.690197 0.553476
vt 0.950756 0.991989
vt 0.695054 0.991989
vt 0.695054 0.553476
vt 0.950755 0.553476
vt 0.698669 0.547506
vt 0.656023 0.445742
vt 0.997018 0.445742
vt 0.954371 0.547505
vt 0.698327 0.548551
vt 0.655680 0.445742
vt 0.996674 0.445742
vt 0.954028 0.548551
vt 0.559752 0.878843
vt 0.479412 0.878843
vt 0.479412 0.724465
vt 0.559752 0.757409
vt 0.559765 0.757801
vt 0.479425 0.724857
vt 0.479425 0.879234
vt 0.559765 0.879234
vt 0.460684 0.764969
vt 0.460684 0.813995
vt 0.045306 0.813995
vt 0.045306 0.764969
vt 0.045306 0.724592
vt 0.460684 0.724592
vt 0.533812 0.981495
vt 0.494242 0.981494
vt 0.494242 0.911477
vt 0.533812 0.943099
vt 0.533303 0.942525
vt 0.493734 0.910903
vt 0.493734 0.980921
vt 0.533304 0.980921
vt 0.523183 0.008593
vt 0.523183 0.229078
vt 0.008647 0.229078
vt 0.008647 0.008593
vt 0.961811 0.265067
vt 0.961814 0.426563
vt 0.854860 0.426563
vt 0.854860 0.265068
vt 0.184153 0.228257
vt 0.184153 0.009631
vt 0.276292 0.009632
vt 0.276290 0.228257
vt 0.453852 0.012500
vt 0.453852 0.228133
vt 0.036069 0.228133
vt 0.036069 0.012500
vt 0.995556 -0.000631
vt 0.995558 0.236367
vt 0.819286 0.236368
vt 0.819286 -0.000631
vt 0.189585 0.229076
vt 0.189585 0.013443
vt 0.356988 0.013443
vt 0.356987 0.229076
vt 0.497962 0.251418
vt 0.497962 0.391566
vt 0.482983 0.391560
vt 0.482983 0.251416
vt 0.019882 0.454563
vt 0.137446 0.497805
vt 0.453456 0.391560
vt 0.453457 0.251416
vt 0.515606 0.410685
vt 0.530641 0.440224
vt 0.500627 0.440235
vt 0.500627 0.410708
vt 0.530641 0.393204
vt 0.515606 0.393204
vt 0.515408 0.251415
vt 0.515443 0.391567
vt 0.500725 0.497805
vt 0.175766 0.497805
vt 0.530477 0.391563
vt 0.005760 0.454563
vt 0.086130 0.454563
vt 0.530443 0.251411
vt 0.505099 0.689738
vt 0.487063 0.693345
vt 0.486794 0.570116
vt 0.504880 0.589289
vt 0.504821 0.563651
vt 0.053634 0.522596
vt 0.488333 0.522596
vt 0.488282 0.537647
vt 0.053633 0.537647
vt 0.034125 0.590116
vt 0.052093 0.570870
vt 0.052366 0.694098
vt 0.034318 0.690555
vt 0.034033 0.564468
vt 0.056263 0.454563
vt 0.056262 0.497805
vt 0.488293 0.559561
vt 0.053634 0.559561
vt 0.056262 0.454563
vt 0.056263 0.497805
vt 0.538077 0.009329
vt 0.538077 0.202872
vt 0.019156 0.497805
vt 0.049212 0.497805
vt 0.477688 0.454563
vt 0.086130 0.497805
vt 0.379938 0.454563
vt 0.005760 0.497805
vt 0.416190 0.454563
vt 0.455576 0.454563
vt 0.045034 0.835192
vt 0.045034 0.729661
vt 0.455384 0.729661
vt 0.455384 0.835192
vt 0.137446 0.454563
vt 0.455384 0.966700
vt 0.045034 0.966700
vt 0.523502 0.454563
vt 0.060546 0.497805
vt 0.244586 0.454563
vt 0.510485 0.454563
vt 0.213884 0.454563
vt 0.041944 0.497805
vt 0.041945 0.454563
vt 0.041945 0.497805
vt 0.041944 0.454563
vt 0.051190 0.497805
vt 0.175766 0.454563
vt 0.244586 0.497805
vt 0.489651 0.497805
vt 0.213884 0.497805
vt 0.031909 0.454563
vt 0.416190 0.497805
vt 0.019156 0.454563
vt 0.379938 0.497805
vt 0.477688 0.497805
vt 0.049212 0.454563
vt 0.455576 0.497805
vt 0.939466 0.974565
vt 0.706343 0.974565
vt 0.706343 0.570900
vt 0.939466 0.570900
vt 0.929904 0.965964
vt 0.715905 0.965964
vt 0.715905 0.579501
vt 0.929904 0.579501
vt 0.443880 0.246203
vt 0.008057 0.246203
vt 0.014033 0.043812
vt 0.008057 0.047959
vt 0.443880 0.047959
vt 0.438930 0.247273
vt 0.561332 0.199882
vt 0.561332 0.040433
vt 0.589172 0.040433
vt 0.589172 0.199882
vt 0.589171 0.236781
vt 0.752372 0.236782
vt 0.752373 0.040434
vt 0.752372 0.199882
vt 0.752373 0.006123
vt 0.589173 0.006122
vt 0.783448 0.040434
vt 0.783448 0.199883
vn -0.925238 0.379387 0.000000
vn -0.925238 0.379387 0.000000
vn -0.925238 0.379387 0.000000
vn -0.925238 0.379387 0.000000
vn 0.925235 0.379394 0.000000
vn 0.925235 0.379394 0.000000
vn 0.925235 0.379394 0.000000
vn 0.925235 0.379394 0.000000
vn 0.000002 1.000000 0.000000
vn 0.000002 1.000000 0.000000
vn 0.000002 1.000000 0.000000
vn 0.000002 1.000000 0.000000
vn -0.000002 -1.000000 0.000000
vn -0.000002 -1.000000 0.000000
vn -0.000002 -1.000000 0.000000
vn -0.000002 -1.000000 0.000000
vn 0.000000 -1.000000 0.000000
vn 0.000000 -1.000000 0.000000
vn 0.000000 -1.000000 0.000000
vn 0.000000 -1.000000 0.000000
vn 0.000000 0.000000 1.000000
vn 0.000000 0.000000 1.000000
vn 0.000000 0.000000 1.000000
vn 0.000000 0.000000 1.000000
vn -0.000002 -1.000000 -0.000002
vn -0.000002 -1.000000 -0.000002
vn -0.000002 -1.000000 -0.000002
vn -0.000002 -1.000000 -0.000002
vn 0.000000 0.000000 -1.000000
vn 0.000000 0.000000 -1.000000
vn 0.000000 0.000000 -1.000000
vn 0.000000 0.000000 -1.000000
vn -0.000002 -1.000000 0.000003
vn -0.000002 -1.000000 0.000003
vn -0.000002 -1.000000 0.000003
vn -0.000002 -1.000000 0.000003
vn 0.000000 0.000000 -1.000000
vn 0.000000 0.000000 -1.000000
vn 0.000000 0.000000 -1.000000
vn 0.000000 0.000000 -1.000000
vn 0.000000 0.000000 -1.000000
vn 0.000000 0.000000 -1.000000
vn 0.000000 0.000000 -1.000000
vn 0.000000 0.000000 -1.000000
vn 0.000000 0.000000 -1.000000
vn 0.000000 0.000000 -1.000000
vn 0.000000 0.000000 -1.000000
vn 0.000000 0.000000 -1.000000
vn 0.000000 0.000000 1.000000
vn 0.000000 0.000000 1.000000
vn 0.000000 0.000000 1.000000
vn 0.000000 0.000000 1.000000
vn -0.999997 -0.002362 0.000000
vn -0.999997 -0.002362 0.000000
vn -0.999997 -0.002362 0.000000
vn -0.999997 -0.002362 0.000000
vn -0.999998 -0.002081 0.000005
vn -0.999998 -0.002081 0.000005
vn -0.999998 -0.002081 0.000005
vn -0.999998 -0.002081 0.000005
vn -0.999997 -0.002227 -0.000421
vn -0.999997 -0.002227 -0.000421
vn -0.999997 -0.002227 -0.000421
vn -0.999997 -0.002227 -0.000421
vn -0.999997 -0.002554 0.000006
vn -0.999997 -0.002554 0.000006
vn -0.999997 -0.002554 0.000006
vn -0.999997 -0.002554 0.000006
vn 1.000000 0.000115 0.000002
vn 1.000000 0.000115 0.000002
vn 1.000000 0.000115 0.000002
vn 1.000000 0.000115 0.000002
vn 1.000000 0.000149 0.000043
vn 1.000000 0.000149 0.000043
vn 1.000000 0.000149 0.000043
vn 1.000000 0.000149 0.000043
vn 1.000000 0.000108 0.000025
vn 1.000000 0.000108 0.000025
vn 1.000000 0.000108 0.000025
vn 1.000000 0.000108 0.000025
vn 1.000000 0.000102 -0.000001
vn 1.000000 0.000102 -0.000001
vn 1.000000 0.000102 -0.000001
vn 1.000000 0.000102 -0.000001
vn 1.000000 0.000145 0.000001
vn 1.000000 0.000145 0.000001
vn 1.000000 0.000145 0.000001
vn 1.000000 0.000145 0.000001
vn 0.000000 0.000000 1.000000
vn 0.000000 0.000000 1.000000
vn 0.000000 0.000000 1.000000
vn 0.000000 0.000000 1.000000
vn 0.000000 0.000000 1.000000
vn 0.000000 0.000000 1.000000
vn 0.000000 0.000000 1.000000
vn 0.000000 0.000000 1.000000
vn -0.999997 -0.002415 -0.000859
vn -0.999997 -0.002415 -0.000859
vn -0.999997 -0.002415 -0.000859
vn -0.999997 -0.002415 -0.000859
vn 0.000049 -0.942105 -0.335319
vn 0.000049 -0.942105 -0.335319
vn 0.000049 -0.942105 -0.335319
vn 0.000049 -0.942105 -0.335319
vn -0.000100 0.942304 0.334758
vn -0.000100 0.942304 0.334758
vn -0.000100 0.942304 0.334758
vn -0.000100 0.942304 0.334758
vn -0.999996 -0.002783 -0.000500
vn -0.999996 -0.002783 -0.000500
vn -0.999996 -0.002783 -0.000500
vn 1.000000 0.000189 -0.000026
vn 1.000000 0.000189 -0.000026
vn 1.000000 0.000189 -0.000026
vn 0.925235 0.379395 0.000000
vn 0.925235 0.379395 0.000000
vn 0.925235 0.379395 0.000000
vn 0.925235 0.379395 0.000000
vn 0.000002 1.000000 0.000000
vn 0.000002 1.000000 0.000000
vn 0.000002 1.000000 0.000000
vn 0.000002 1.000000 0.000000
vn -0.000001 -1.000000 0.000000
vn -0.000001 -1.000000 0.000000
vn -0.000001 -1.000000 0.000000
vn -0.000001 -1.000000 0.000000
vn 1.000000 -0.000008 0.000000
vn 1.000000 -0.000008 0.000000
vn 1.000000 -0.000008 0.000000
vn 1.000000 -0.000008 0.000000
vn 0.000000 0.000000 1.000000
vn 0.000000 0.000000 1.000000
vn 0.000000 0.000000 1.000000
vn 0.000000 0.000000 1.000000
vn 0.000000 0.000000 1.000000
vn 0.000000 0.000000 1.000000
vn 0.000000 0.000000 1.000000
vn 0.000000 0.000000 1.000000
vn -0.000002 -1.000000 0.000000
vn -0.000002 -1.000000 0.000000
vn -0.000002 -1.000000 0.000000
vn -0.000002 -1.000000 0.000000
vn 0.000000 0.000000 -1.000000
vn 0.000000 0.000000 -1.000000
vn 0.000000 0.000000 -1.000000
vn 0.000000 0.000000 -1.000000
vn -0.000002 -1.000000 0.000000
vn -0.000002 -1.000000 0.000000
vn -0.000002 -1.000000 0.000000
vn -0.000002 -1.000000 0.000000
vn 0.000000 0.000000 -1.000000
vn 0.000000 0.000000 -1.000000
vn 0.000000 0.000000 -1.000000
vn 0.000000 0.000000 -1.000000
vn 0.781186 0.624298 0.000000
vn 0.781186 0.624298 0.000000
vn 0.781186 0.624298 0.000000
vn 0.781186 0.624298 0.000000
vn 0.000001 1.000000 0.000000
vn 0.000001 1.000000 0.000000
vn 0.000001 1.000000 0.000000
vn 0.000001 1.000000 0.000000
vn -0.000001 -1.000000 0.000000
vn -0.000001 -1.000000 0.000000
vn -0.000001 -1.000000 0.000000
vn -0.000001 -1.000000 0.000000
vn 1.000000 -0.000011 0.000000
vn 1.000000 -0.000011 0.000000
vn 1.000000 -0.000011 0.000000
vn 1.000000 -0.000011 0.000000
vn 0.000000 0.000000 1.000000
vn 0.000000 0.000000 1.000000
vn 0.000000 0.000000 1.000000
vn 0.000000 0.000000 1.000000
vn 0.000000 0.000000 1.000000
vn 0.000000 0.000000 1.000000
vn 0.000000 0.000000 1.000000
vn 0.000000 0.000000 1.000000
vn -0.000001 -1.000000 0.000001
vn -0.000001 -1.000000 0.000001
vn -0.000001 -1.000000 0.000001
vn -0.000001 -1.000000 0.000001
vn 0.000000 0.000000 -1.000000
vn 0.000000 0.000000 -1.000000
vn 0.000000 0.000000 -1.000000
vn 0.000000 0.000000 -1.000000
vn -0.000001 -1.000000 -0.000001
vn -0.000001 -1.000000 -0.000001
vn -0.000001 -1.000000 -0.000001
vn -0.000001 -1.000000 -0.000001
vn 0.000000 0.000000 -1.000000
vn 0.000000 0.000000 -1.000000
vn 0.000000 0.000000 -1.000000
vn 0.000000 0.000000 -1.000000
vn 0.000076 0.002417 0.999997
vn 0.000076 0.002417 0.999997
vn 0.000076 0.002417 0.999997
vn 0.000076 0.002417 0.999997
vn 0.000000 1.000000 0.000000
vn 0.000000 1.000000 0.000000
vn 0.000000 1.000000 0.000000
vn 0.000000 1.000000 0.000000
vn 1.000000 0.000376 0.000000
vn 1.000000 0.000376 0.000000
vn 1.000000 0.000376 0.000000
vn 1.000000 0.000376 0.000000
vn 0.000000 1.000000 0.000000
vn 0.000000 1.000000 0.000000
vn 0.000000 1.000000 0.000000
vn 0.000000 1.000000 0.000000
vn 1.000000 -0.000044 -0.000391
vn 1.000000 -0.000044 -0.000391
vn 1.000000 -0.000044 -0.000391
vn 0.000000 0.000000 1.000000
vn 0.000000 0.000000 1.000000
vn 0.000000 0.000000 1.000000
vn 0.000000 0.000000 1.000000
vn 1.000000 0.000393 0.000000
vn 1.000000 0.000393 0.000000
vn 1.000000 0.000393 0.000000
vn 0.000002 1.000000 -0.000000
vn 0.000002 1.000000 -0.000000
vn 0.000002 1.000000 0.000000
vn 0.000002 1.000000 0.000000
vn 0.000000 1.000000 0.000000
vn 0.000000 1.000000 0.000000
vn 0.000002 1.000000 0.000000
vn 0.000002 1.000000 0.000000
vn 0.000002 1.000000 -0.000001
vn 0.000002 1.000000 -0.000001
vn 0.000002 1.000000 0.000000
vn 0.000002 1.000000 0.000000
vn 0.000000 1.000000 0.000000
vn 0.000000 1.000000 0.000000
vn 0.000002 1.000000 0.000000
vn 0.000002 1.000000 0.000000
vn 0.000000 0.000000 1.000000
vn 0.000000 0.000000 1.000000
vn 0.000002 1.000000 0.000000
vn 0.000002 1.000000 0.000000
vn 1.000000 0.000000 0.000000
vn 1.000000 0.000000 0.000000
vn 0.000002 1.000000 0.000000
vn 0.000002 1.000000 0.000000
vn 0.000000 0.000000 -1.000000
vn 0.000000 0.000000 -1.000000
vn 0.000002 1.000000 0.000000
vn 0.000002 1.000000 0.000000
vn -1.000000 0.000000 0.000000
vn -1.000000 0.000000 0.000000
vn 0.000002 1.000000 0.000000
vn 0.000002 1.000000 0.000000
vn 0.000000 0.000000 1.000000
vn 0.000000 0.000000 1.000000
vn 0.000000 0.000000 1.000000
vn 0.000000 0.000000 1.000000
vn 0.000000 1.000000 0.000000
vn 0.000000 1.000000 0.000000
vn 0.000000 1.000000 0.000000
vn 0.000000 1.000000 0.000000
vn 0.000000 0.000000 -1.000000
vn 0.000000 0.000000 -1.000000
vn 0.000000 0.000000 -1.000000
vn 0.000000 0.000000 -1.000000
vn 1.000000 0.000000 0.000000
vn 1.000000 0.000000 0.000000
vn 1.000000 0.000000 0.000000
vn 1.000000 0.000000 0.000000
vn -1.000000 0.000000 0.000000
vn -1.000000 0.000000 0.000000
vn -1.000000 0.000000 0.000000
vn -1.000000 0.000000 0.000000
s off
g city_residential_03
f 3/35/1 6/36/2 5/37/3 1/38/4
f 2/39/5 8/40/6 7/41/7 4/42/8
f 80/185/9 81/186/10 82/187/11 83/188/12
f 9/145/13 7/120/14 8/147/15 11/180/16
f 12/152/17 5/178/18 6/150/19 10/176/20
f 1/47/21 5/48/22 8/49/23 2/50/24
f 11/148/25 8/179/26 5/151/27 12/177/28
f 20/191/29 10/5/30 9/6/31 19/7/32
f 9/121/33 10/149/34 6/175/35 7/146/36
f 4/51/37 7/52/38 6/53/39 3/54/40
f 26/8/41 20/4/42 19/194/43 25/11/44
f 14/14/45 26/8/46 25/11/47 13/17/48
f 21/26/49 23/27/50 28/28/51 22/29/52
f 10/3/53 20/192/54 17/193/55 12/22/56
f 14/23/57 16/24/58 27/25/59 26/34/60
f 28/144/61 27/25/62 16/24/63 22/143/64
f 27/25/65 17/16/66 20/10/67 26/34/68
f 18/1/69 19/2/70 9/9/71 11/12/72
f 24/123/73 18/124/74 31/125/75 23/126/76
f 15/13/77 24/15/78 23/18/79 21/19/80
f 15/13/81 13/20/82 25/21/83 24/15/84
f 25/21/85 19/190/86 18/189/87 24/15/88
f 17/30/89 18/31/90 11/32/91 12/33/92
f 31/128/93 32/129/94 29/130/95 30/131/96
f 28/132/97 32/133/98 17/134/99 27/135/100
f 30/131/101 29/130/102 28/139/103 23/140/104
f 31/125/105 18/124/106 17/134/107 32/133/108
f 32/133/109 28/132/110 29/136/111
f 23/126/112 31/125/113 30/127/114
f 34/153/115 40/154/116 39/155/117 36/156/118
f 36/156/119 35/158/120 33/159/121 34/153/122
f 41/161/123 39/174/124 40/163/125 43/172/126
f 47/89/127 41/90/128 43/91/129 46/92/130
f 46/93/131 43/94/132 44/95/133 45/96/134
f 33/55/135 37/56/136 40/57/137 34/58/138
f 43/164/139 40/171/140 37/167/141 44/168/142
f 48/97/143 42/98/144 41/99/145 47/100/146
f 41/173/147 42/165/148 38/166/149 39/162/150
f 36/59/151 39/60/152 38/61/153 35/62/154
f 50/66/155 56/67/156 55/68/157 52/63/158
f 52/63/159 51/64/160 49/65/161 50/66/162
f 57/169/163 55/105/164 56/160/165 59/117/166
f 63/77/167 57/78/168 59/79/169 62/80/170
f 62/81/171 59/82/172 60/83/173 61/84/174
f 49/69/175 53/70/176 56/71/177 50/72/178
f 59/157/179 56/118/180 53/142/181 60/141/182
f 64/85/183 58/86/184 57/87/185 63/88/186
f 57/106/187 58/138/188 54/137/189 55/170/190
f 52/73/191 55/74/192 54/75/193 51/76/194
f 65/101/195 66/102/196 68/103/197 67/104/198
f 67/104/199 68/103/200 70/107/201 69/108/202
f 66/109/203 73/110/204 70/111/205 68/112/206
f 72/115/207 71/116/208 66/102/209 65/101/210
f 74/113/211 66/109/212 71/114/213
f 74/119/214 71/116/215 72/115/216 75/122/217
f 73/110/218 66/109/219 74/113/220
f 4/43/221 3/44/222 77/182/223 76/181/224
f 3/44/225 1/45/226 78/183/227 77/182/228
f 1/45/229 2/46/230 79/184/231 78/183/232
f 2/46/233 4/43/234 76/181/235 79/184/236
f 76/181/237 77/182/238 81/186/239 80/185/240
f 77/182/241 78/183/242 82/187/243 81/186/244
f 78/183/245 79/184/246 83/188/247 82/187/248
f 79/184/249 76/181/250 80/185/251 83/188/252
f 84/195/253 85/196/254 87/197/255 86/198/256
f 86/198/257 87/197/258 89/201/259 88/202/260
f 88/202/261 89/201/262 91/205/263 90/206/264
f 85/204/265 91/203/266 89/201/267 87/197/268
f 90/200/269 84/199/270 86/198/271 88/202/272
