# This file uses centimeters as units for non-parametric coordinates.

g default
v 11.000000 2.430966 11.000008
v 11.000000 2.430966 -10.999992
v -11.000000 2.430966 -10.999992
v -11.000000 2.430966 11.000008
v -3.000000 2.430966 11.000008
v -3.000000 2.430966 -11.000008
v 3.000000 2.430966 11.000008
v 3.000000 2.430966 -11.000008
v 11.000000 2.430966 -2.999992
v 3.000000 2.430966 -2.999992
v -3.000000 2.430966 -2.999992
v -11.000000 2.430966 -2.999992
v 11.000000 2.430966 3.000008
v 3.000000 2.430966 3.000008
v -3.000000 2.430966 2.999992
v -11.000000 2.430966 3.000008
v -3.000000 2.000000 11.000008
v -3.000000 2.000000 2.999992
v 3.000000 2.000000 11.000008
v 3.000000 2.000000 3.000008
v -3.000000 2.000000 -2.999992
v -3.000000 2.000000 -11.000008
v 3.000000 2.000000 -2.999992
v 3.000000 2.000000 -11.000008
v 11.000000 2.000000 3.000008
v 11.000000 2.000000 -2.999992
v -11.000000 2.000000 3.000008
v -11.000000 2.000000 -2.999992
v -11.000000 2.000000 11.000008
v 11.000000 2.000000 11.000008
v 11.000000 2.000000 -10.999992
v -11.000000 2.000000 -10.999992
v -3.000000 0.000000 11.000008
v 3.000000 0.000000 11.000008
v 3.000000 0.000000 -11.000008
v -3.000000 0.000000 -11.000008
v 11.000000 0.000000 3.000008
v 11.000000 0.000000 -2.999992
v -11.000000 0.000000 -2.999992
v -11.000000 0.000000 3.000008
v -11.000000 0.000000 11.000008
v 11.000000 0.000000 11.000008
v 11.000000 0.000000 -10.999992
v -11.000000 0.000000 -10.999992
vt 0.134335 0.347858
vt 0.134335 0.003453
vt 0.476951 0.003453
vt 0.476951 0.347858
vt 0.485389 0.355619
vt 0.485389 0.003453
vt 0.645158 0.003453
vt 0.645158 0.355619
vt 0.485389 0.866999
vt 0.485389 0.516228
vt 0.645158 0.516228
vt 0.645274 0.866999
vt 0.996982 0.355619
vt 0.996982 0.516228
vt 0.134335 0.355619
vt 0.134335 0.516228
vt 0.655159 0.003453
vt 0.655159 0.347858
vt 0.476951 0.866999
vt 0.476951 0.526766
vt 0.655159 0.526766
vt 0.655159 0.866999
vt 0.996982 0.347858
vt 0.996982 0.526766
vt 0.134335 0.526766
vt 0.996982 0.003453
vt 0.996982 0.866999
vt 0.134335 0.866999
vt 0.130127 0.002606
vt 0.130127 0.402817
vt 0.098074 0.402817
vt 0.098074 0.002606
vt 0.727920 0.876411
vt 0.995386 0.876411
vt 0.995386 0.905382
vt 0.727920 0.905382
vt 0.133791 0.876411
vt 0.525798 0.876411
vt 0.525798 0.905382
vt 0.133791 0.905382
vt 0.130127 0.600794
vt 0.130127 0.996319
vt 0.098074 0.996319
vt 0.098074 0.600794
vt 0.130127 0.002606
vt 0.130127 0.402817
vt 0.098074 0.402817
vt 0.098074 0.002606
vt 0.727920 0.876411
vt 0.995386 0.876411
vt 0.995386 0.905382
vt 0.727920 0.905382
vt 0.133791 0.876411
vt 0.525798 0.876411
vt 0.525798 0.905382
vt 0.133791 0.905382
vt 0.130127 0.600794
vt 0.130127 0.996319
vt 0.098074 0.996319
vt 0.098074 0.600794
vt 0.727920 0.996560
vt 0.525798 0.996560
vt 0.727920 0.996560
vt 0.525798 0.996560
vt 0.003845 0.600794
vt 0.003845 0.402817
vt 0.003845 0.600794
vt 0.003845 0.402817
vt 0.003845 0.002606
vt 0.995386 0.996560
vt 0.133791 0.996560
vt 0.003845 0.996319
vt 0.003845 0.002606
vt 0.995386 0.996560
vt 0.133791 0.996560
vt 0.003845 0.996319
vn 0.000000 1.000000 0.000000
vn 0.000000 1.000000 0.000000
vn 0.000000 1.000000 0.000000
vn 0.000000 1.000000 0.000000
vn -0.000607 1.000000 0.000611
vn -0.001057 0.999999 0.000472
vn -0.001057 0.999999 0.000472
vn -0.000435 1.000000 0.000179
vn -0.000261 1.000000 0.000202
vn -0.000291 1.000000 0.000502
vn -0.000119 1.000000 0.000072
vn -0.000261 1.000000 0.000202
vn -0.000119 1.000000 0.000072
vn -0.000435 1.000000 0.000179
vn -0.000037 1.000000 -0.000020
vn -0.000037 1.000000 -0.000020
vn -0.000291 1.000000 0.000502
vn -0.000607 1.000000 0.000611
vn -0.000435 1.000000 0.000179
vn -0.000119 1.000000 0.000072
vn -0.000469 0.999999 0.001057
vn -0.000607 1.000000 0.000611
vn -0.000291 1.000000 0.000502
vn -0.000469 0.999999 0.001057
vn 1.000000 0.000000 0.000281
vn 1.000000 0.000000 0.000281
vn 1.000000 0.000000 0.000281
vn 1.000000 0.000000 0.000281
vn -1.000000 0.000000 -0.000407
vn -1.000000 0.000000 -0.000407
vn -1.000000 0.000000 -0.000407
vn -1.000000 0.000000 -0.000407
vn 1.000000 0.000000 0.000282
vn 1.000000 0.000000 0.000282
vn 1.000000 0.000000 0.000282
vn 1.000000 0.000000 0.000282
vn -1.000000 0.000000 -0.000407
vn -1.000000 0.000000 -0.000407
vn -1.000000 0.000000 -0.000407
vn -1.000000 0.000000 -0.000407
vn -0.000409 0.000000 -1.000000
vn -0.000409 0.000000 -1.000000
vn -0.000409 0.000000 -1.000000
vn -0.000409 0.000000 -1.000000
vn 0.000282 0.000000 1.000000
vn 0.000282 0.000000 1.000000
vn 0.000282 0.000000 1.000000
vn 0.000282 0.000000 1.000000
vn -0.000408 0.000000 -1.000000
vn -0.000408 0.000000 -1.000000
vn -0.000408 0.000000 -1.000000
vn -0.000408 0.000000 -1.000000
vn 0.000281 0.000000 1.000000
vn 0.000281 0.000000 1.000000
vn 0.000281 0.000000 1.000000
vn 0.000281 0.000000 1.000000
vn 0.000000 1.000000 0.000000
vn 0.000000 1.000000 0.000000
vn 0.000000 1.000000 0.000000
vn 0.000000 1.000000 0.000000
vn 0.000000 1.000000 0.000000
vn 0.000000 1.000000 0.000000
vn 0.000000 1.000000 0.000000
vn 0.000000 1.000000 0.000000
vn 0.000000 1.000000 0.000000
vn 0.000000 1.000000 0.000000
vn 0.000000 1.000000 0.000000
vn 0.000000 1.000000 0.000000
vn -1.000000 0.000000 0.000000
vn -1.000000 0.000000 0.000000
vn -1.000000 0.000000 0.000000
vn -1.000000 0.000000 0.000000
vn -0.000070 0.000000 1.000000
vn -0.000070 0.000000 1.000000
vn -0.000070 0.000000 1.000000
vn -0.000070 0.000000 1.000000
vn 0.000000 0.000000 1.000000
vn 0.000000 0.000000 1.000000
vn 0.000000 0.000000 1.000000
vn 0.000000 0.000000 1.000000
vn 1.000000 0.000000 0.000000
vn 1.000000 0.000000 0.000000
vn 1.000000 0.000000 0.000000
vn 1.000000 0.000000 0.000000
vn 1.000000 0.000000 0.000000
vn 1.000000 0.000000 0.000000
vn 1.000000 0.000000 0.000000
vn 1.000000 0.000000 0.000000
vn -0.000037 0.000000 -1.000000
vn -0.000037 0.000000 -1.000000
vn -0.000037 0.000000 -1.000000
vn -0.000037 0.000000 -1.000000
vn -0.000036 0.000000 -1.000000
vn -0.000036 0.000000 -1.000000
vn -0.000036 0.000000 -1.000000
vn -0.000036 0.000000 -1.000000
vn -1.000000 0.000000 0.000000
vn -1.000000 0.000000 0.000000
vn -1.000000 0.000000 0.000000
vn -1.000000 0.000000 0.000000
vn -0.000001 0.000000 1.000000
vn -0.000001 0.000000 1.000000
vn -0.000001 0.000000 1.000000
vn -0.000001 0.000000 1.000000
vn -0.000024 0.000000 -1.000000
vn -0.000024 0.000000 -1.000000
vn -0.000024 0.000000 -1.000000
vn -0.000024 0.000000 -1.000000
vn 0.999999 0.001673 0.000001
vn 0.999999 0.001673 0.000001
vn 0.999999 0.001673 0.000001
vn 0.999999 0.001673 0.000001
vn -1.000000 0.000000 0.000000
vn -1.000000 0.000000 0.000000
vn -1.000000 0.000000 0.000000
vn -1.000000 0.000000 0.000000
vn -1.000000 0.000000 0.000000
vn -1.000000 0.000000 0.000000
vn -1.000000 0.000000 0.000000
vn -1.000000 0.000000 0.000000
vn -0.000069 0.000000 1.000000
vn -0.000069 0.000000 1.000000
vn -0.000069 0.000000 1.000000
vn -0.000069 0.000000 1.000000
vn 0.000000 0.000000 1.000000
vn 0.000000 0.000000 1.000000
vn 0.000000 0.000000 1.000000
vn 0.000000 0.000000 1.000000
vn 1.000000 0.000841 0.000209
vn 1.000000 0.000841 0.000209
vn 1.000000 0.000841 0.000209
vn 1.000000 0.000841 0.000209
vn 1.000000 0.000838 -0.000210
vn 1.000000 0.000838 -0.000210
vn 1.000000 0.000838 -0.000210
vn 1.000000 0.000838 -0.000210
vn -0.000037 0.000000 -1.000000
vn -0.000037 0.000000 -1.000000
vn -0.000037 0.000000 -1.000000
vn -0.000037 0.000000 -1.000000
vn -0.000036 0.000000 -1.000000
vn -0.000036 0.000000 -1.000000
vn -0.000036 0.000000 -1.000000
vn -0.000036 0.000000 -1.000000
vn -1.000000 0.000000 0.000000
vn -1.000000 0.000000 0.000000
vn -1.000000 0.000000 0.000000
vn -1.000000 0.000000 0.000000
s off
g city_road_3
f 16/1/1 4/2/2 5/3/3 15/4/4
f 18/5/5 17/6/6 19/7/7 20/8/8
f 22/9/9 21/10/10 23/11/11 24/12/12
f 23/11/13 20/8/14 25/13/15 26/14/16
f 21/10/17 18/5/18 20/8/19 23/11/20
f 27/15/21 18/5/22 21/10/23 28/16/24
f 15/4/25 5/3/26 17/6/27 18/5/28
f 7/17/29 14/18/30 20/8/31 19/7/32
f 6/19/33 11/20/34 21/10/35 22/9/36
f 10/21/37 8/22/38 24/12/39 23/11/40
f 14/18/41 13/23/42 25/13/43 20/8/44
f 9/24/45 10/21/46 23/11/47 26/14/48
f 16/1/49 15/4/50 18/5/51 27/15/52
f 11/20/53 12/25/54 28/16/55 21/10/56
f 13/23/57 14/18/58 7/17/59 1/26/60
f 9/24/61 2/27/62 8/22/63 10/21/64
f 6/19/65 3/28/66 12/25/67 11/20/68
f 4/29/69 16/30/70 27/31/71 29/32/72
f 5/33/73 4/34/74 29/35/75 17/36/76
f 1/37/77 7/38/78 19/39/79 30/40/80
f 13/41/81 1/42/82 30/43/83 25/44/84
f 2/45/85 9/46/86 26/47/87 31/48/88
f 8/49/89 2/50/90 31/51/91 24/52/92
f 3/53/93 6/54/94 22/55/95 32/56/96
f 12/57/97 3/58/98 32/59/99 28/60/100
f 19/39/101 17/36/102 33/61/103 34/62/104
f 22/55/105 24/52/106 35/63/107 36/64/108
f 26/47/109 25/44/110 37/65/111 38/66/112
f 27/31/113 28/60/114 39/67/115 40/68/116
f 29/32/117 27/31/118 40/68/119 41/69/120
f 17/36/121 29/35/122 41/70/123 33/61/124
f 30/40/125 19/39/126 34/62/127 42/71/128
f 25/44/129 30/43/130 42/72/131 37/65/132
f 31/48/133 26/47/134 38/66/135 43/73/136
f 24/52/137 31/51/138 43/74/139 35/63/140
f 32/56/141 22/55/142 36/64/143 44/75/144
f 28/60/145 32/59/146 44/76/147 39/67/148
